<svg
  xmlns="http://www.w3.org/2000/svg"
  viewBox="0 0 48 48"
  fill="none"
  stroke="#0d442a"
  stroke-width="2.5"
  stroke-linecap="round"
  stroke-linejoin="round"
  aria-hidden="true"
>
  <path d="M4.5 14.5c6.3-2.2 12.8-.9 19.5 3.5v25c-6.7-4.4-13.2-5.7-19.5-3.5Z"/>
  <path d="M43.5 14.5c-6.3-2.2-12.8-.9-19.5 3.5v25c6.7-4.4 13.2-5.7 19.5-3.5Z"/>
  <path d="M24 18v25"/>
  <path d="M24 17c.2-5.8 3.4-9.5 9-11.5-.1 5.8-3.3 9.5-9 11.5Z" fill="#0d442a"/>
  <path d="M23.8 17c-5.6-1-9.1-4.2-10-9.4 5.6.8 9 4 10 9.4Z" fill="#0d442a"/>
</svg>
